<svg width="47" height="52" viewBox="0 0 47 52" fill="none" xmlns="http://www.w3.org/2000/svg">
<path d="M39 0C43.4183 0 47 3.58172 47 8V44C47 48.4183 43.4183 52 39 52H8.5C4.08172 52 0.5 48.4183 0.5 44V8C0.5 3.58172 4.08172 0 8.5 0H39Z" fill="url(#paint0_linear_44_3195)"/>
<path d="M39 0C43.4183 0 47 3.58172 47 8V44C47 48.4183 43.4183 52 39 52H8.5C4.08172 52 0.5 48.4183 0.5 44V8C0.5 3.58172 4.08172 0 8.5 0H39Z" stroke="#E5E7EB"/>
<g clip-path="url(#clip0_44_3195)">
<g clip-path="url(#clip1_44_3195)">
<path d="M12.5 18.625C12.5 17.5898 13.3398 16.75 14.375 16.75H18.125C19.1602 16.75 20 17.5898 20 18.625V19.25H27.5V18.625C27.5 17.5898 28.3398 16.75 29.375 16.75H33.125C34.1602 16.75 35 17.5898 35 18.625V22.375C35 23.4102 34.1602 24.25 33.125 24.25H29.375C28.3398 24.25 27.5 23.4102 27.5 22.375V21.75H20V22.375C20 22.4414 19.9961 22.5078 19.9883 22.5703L23.125 26.75H26.875C27.9102 26.75 28.75 27.5898 28.75 28.625V32.375C28.75 33.4102 27.9102 34.25 26.875 34.25H23.125C22.0898 34.25 21.25 33.4102 21.25 32.375V28.625C21.25 28.5586 21.2539 28.4922 21.2617 28.4297L18.125 24.25H14.375C13.3398 24.25 12.5 23.4102 12.5 22.375V18.625Z" fill="white"/>
</g>
</g>
<defs>
<linearGradient id="paint0_linear_44_3195" x1="0.5" y1="26" x2="47" y2="26" gradientUnits="userSpaceOnUse">
<stop stop-color="#0EA5E9"/>
<stop offset="1" stop-color="#0284C7"/>
</linearGradient>
<clipPath id="clip0_44_3195">
<rect width="22.5" height="20" fill="white" transform="translate(12.5 15.5)"/>
</clipPath>
<clipPath id="clip1_44_3195">
<path d="M12.5 15.5H35V35.5H12.5V15.5Z" fill="white"/>
</clipPath>
</defs>
</svg>
