<svg width="48" height="48" viewBox="0 0 48 48" fill="none" xmlns="http://www.w3.org/2000/svg">
<path d="M36 0C42.6274 0 48 5.37258 48 12V36C48 42.6274 42.6274 48 36 48H12C5.37258 48 0 42.6274 0 36V12C0 5.37258 5.37258 0 12 0H36Z" fill="#FEE2E2"/>
<path d="M36 0C42.6274 0 48 5.37258 48 12V36C48 42.6274 42.6274 48 36 48H12C5.37258 48 0 42.6274 0 36V12C0 5.37258 5.37258 0 12 0H36Z" stroke="#E5E7EB"/>
<path d="M30 36H18V12H30V36Z" stroke="#E5E7EB"/>
<path d="M30 32H18V16H30V32Z" stroke="#E5E7EB"/>
<path d="M28.7063 20.7066C29.0969 20.316 29.0969 19.6816 28.7063 19.291C28.3156 18.9004 27.6813 18.9004 27.2906 19.291L24 22.5848L20.7063 19.2941C20.3156 18.9035 19.6813 18.9035 19.2906 19.2941C18.9 19.6848 18.9 20.3191 19.2906 20.7098L22.5844 24.0004L19.2938 27.2941C18.9031 27.6848 18.9031 28.3191 19.2938 28.7098C19.6844 29.1004 20.3188 29.1004 20.7094 28.7098L24 25.416L27.2938 28.7066C27.6844 29.0973 28.3188 29.0973 28.7094 28.7066C29.1 28.316 29.1 27.6816 28.7094 27.291L25.4156 24.0004L28.7063 20.7066Z" fill="#DC2626"/>
</svg>
