<svg width="48" height="48" viewBox="0 0 48 48" fill="none" xmlns="http://www.w3.org/2000/svg">
<path d="M36 0C42.6274 0 48 5.37258 48 12V36C48 42.6274 42.6274 48 36 48H12C5.37258 48 0 42.6274 0 36V12C0 5.37258 5.37258 0 12 0H36Z" fill="#DCFCE7"/>
<path d="M36 0C42.6274 0 48 5.37258 48 12V36C48 42.6274 42.6274 48 36 48H12C5.37258 48 0 42.6274 0 36V12C0 5.37258 5.37258 0 12 0H36Z" stroke="#E5E7EB"/>
<path d="M31 36H17V12H31V36Z" stroke="#E5E7EB"/>
<g clip-path="url(#clip0_43_1610)">
<path d="M30.7062 19.293C31.0968 19.6836 31.0968 20.318 30.7062 20.7086L22.7062 28.7086C22.3155 29.0992 21.6812 29.0992 21.2905 28.7086L17.2905 24.7086C16.8999 24.318 16.8999 23.6836 17.2905 23.293C17.6812 22.9023 18.3155 22.9023 18.7062 23.293L21.9999 26.5836L29.2937 19.293C29.6843 18.9023 30.3187 18.9023 30.7093 19.293H30.7062Z" fill="#16A34A"/>
</g>
<defs>
<clipPath id="clip0_43_1610">
<path d="M17 16H31V32H17V16Z" fill="white"/>
</clipPath>
</defs>
</svg>
