<svg width="24" height="29" viewBox="0 0 24 29" fill="none" xmlns="http://www.w3.org/2000/svg">
<path d="M24 29H0V0H24V29Z" stroke="#E5E7EB"/>
<g clip-path="url(#clip0_41_712)">
<path d="M7.12959 3.79064C7.59365 4.20783 7.63115 4.91564 7.21396 5.3797L3.83896 9.1297C3.63271 9.35939 3.34209 9.49533 3.03271 9.50002C2.72334 9.5047 2.42803 9.38752 2.20771 9.17189L0.328027 7.29689C-0.10791 6.85627 -0.10791 6.14377 0.328027 5.70314C0.763965 5.26252 1.48115 5.26252 1.91709 5.70314L2.95303 6.73908L5.53584 3.87033C5.95303 3.40627 6.66084 3.36877 7.1249 3.78595L7.12959 3.79064ZM7.12959 11.2906C7.59365 11.7078 7.63115 12.4156 7.21396 12.8797L3.83896 16.6297C3.63271 16.8594 3.34209 16.9953 3.03271 17C2.72334 17.0047 2.42803 16.8875 2.20771 16.6719L0.328027 14.7969C-0.112598 14.3563 -0.112598 13.6438 0.328027 13.2078C0.768652 12.7719 1.48115 12.7672 1.91709 13.2078L2.95303 14.2438L5.53584 11.375C5.95303 10.911 6.66084 10.8735 7.1249 11.2906H7.12959ZM10.4999 6.50002C10.4999 5.67033 11.1702 5.00002 11.9999 5.00002H22.4999C23.3296 5.00002 23.9999 5.67033 23.9999 6.50002C23.9999 7.3297 23.3296 8.00002 22.4999 8.00002H11.9999C11.1702 8.00002 10.4999 7.3297 10.4999 6.50002ZM10.4999 14C10.4999 13.1703 11.1702 12.5 11.9999 12.5H22.4999C23.3296 12.5 23.9999 13.1703 23.9999 14C23.9999 14.8297 23.3296 15.5 22.4999 15.5H11.9999C11.1702 15.5 10.4999 14.8297 10.4999 14ZM7.4999 21.5C7.4999 20.6703 8.17021 20 8.9999 20H22.4999C23.3296 20 23.9999 20.6703 23.9999 21.5C23.9999 22.3297 23.3296 23 22.4999 23H8.9999C8.17021 23 7.4999 22.3297 7.4999 21.5ZM2.2499 19.25C2.84664 19.25 3.41894 19.4871 3.84089 19.909C4.26285 20.331 4.4999 20.9033 4.4999 21.5C4.4999 22.0968 4.26285 22.669 3.84089 23.091C3.41894 23.513 2.84664 23.75 2.2499 23.75C1.65317 23.75 1.08087 23.513 0.658912 23.091C0.236955 22.669 -9.76697e-05 22.0968 -9.76697e-05 21.5C-9.76697e-05 20.9033 0.236955 20.331 0.658912 19.909C1.08087 19.4871 1.65317 19.25 2.2499 19.25Z" fill="#16A34A"/>
</g>
<defs>
<clipPath id="clip0_41_712">
<path d="M0 2H24V26H0V2Z" fill="white"/>
</clipPath>
</defs>
</svg>
