<svg width="34" height="41" viewBox="0 0 34 41" fill="none" xmlns="http://www.w3.org/2000/svg">
<path d="M26 0.75C30.4183 0.75 34 4.33172 34 8.75V32.75C34 37.1683 30.4183 40.75 26 40.75H8C3.58172 40.75 0 37.1683 0 32.75V8.75C0 4.33172 3.58172 0.75 8 0.75H26Z" fill="#E0F2FE"/>
<path d="M26 0.75C30.4183 0.75 34 4.33172 34 8.75V32.75C34 37.1683 30.4183 40.75 26 40.75H8C3.58172 40.75 0 37.1683 0 32.75V8.75C0 4.33172 3.58172 0.75 8 0.75H26Z" stroke="#E5E7EB"/>
<path d="M26 30.75H8V10.75H26V30.75Z" stroke="#E5E7EB"/>
<g clip-path="url(#clip0_79_563)">
<path d="M20.5 12.75H13.5C12.6719 12.75 11.9969 13.4313 12.0281 14.2563C12.0344 14.4219 12.0406 14.5875 12.05 14.75H8.75C8.33437 14.75 8 15.0844 8 15.5C8 18.3938 9.04688 20.4063 10.4531 21.7719C11.8375 23.1188 13.525 23.7969 14.7688 24.1406C15.5 24.3438 16 24.9531 16 25.5656C16 26.2188 15.4688 26.75 14.8156 26.75H14C13.4469 26.75 13 27.1969 13 27.75C13 28.3031 13.4469 28.75 14 28.75H20C20.5531 28.75 21 28.3031 21 27.75C21 27.1969 20.5531 26.75 20 26.75H19.1844C18.5312 26.75 18 26.2188 18 25.5656C18 24.9531 18.4969 24.3406 19.2312 24.1406C20.4781 23.7969 22.1656 23.1188 23.55 21.7719C24.9531 20.4063 26 18.3938 26 15.5C26 15.0844 25.6656 14.75 25.25 14.75H21.95C21.9594 14.5875 21.9656 14.425 21.9719 14.2563C22.0031 13.4313 21.3281 12.75 20.5 12.75ZM9.52813 16.25H12.1656C12.45 19.0656 13.0781 20.9469 13.7875 22.2063C13.0094 21.8625 12.2 21.3781 11.5 20.6969C10.5 19.725 9.6875 18.3219 9.53125 16.25H9.52813ZM22.5031 20.6969C21.8031 21.3781 20.9937 21.8625 20.2156 22.2063C20.925 20.9469 21.5531 19.0656 21.8375 16.25H24.475C24.3156 18.3219 23.5031 19.725 22.5063 20.6969H22.5031Z" fill="#0284C7"/>
</g>
<defs>
<clipPath id="clip0_79_563">
<path d="M8 12.75H26V28.75H8V12.75Z" fill="white"/>
</clipPath>
</defs>
</svg>
