<svg width="44" height="52" viewBox="0 0 44 52" fill="none" xmlns="http://www.w3.org/2000/svg">
<path d="M36 0C40.4183 0 44 3.58172 44 8V44C44 48.4183 40.4183 52 36 52H8C3.58172 52 0 48.4183 0 44V8C0 3.58172 3.58172 0 8 0H36Z" fill="url(#paint0_linear_44_3201)"/>
<path d="M36 0C40.4183 0 44 3.58172 44 8V44C44 48.4183 40.4183 52 36 52H8C3.58172 52 0 48.4183 0 44V8C0 3.58172 3.58172 0 8 0H36Z" stroke="#E5E7EB"/>
<g clip-path="url(#clip0_44_3201)">
<g clip-path="url(#clip1_44_3201)">
<path d="M22 35.5C24.6522 35.5 27.1957 34.4464 29.0711 32.5711C30.9464 30.6957 32 28.1522 32 25.5C32 22.8478 30.9464 20.3043 29.0711 18.4289C27.1957 16.5536 24.6522 15.5 22 15.5C19.3478 15.5 16.8043 16.5536 14.9289 18.4289C13.0536 20.3043 12 22.8478 12 25.5C12 28.1522 13.0536 30.6957 14.9289 32.5711C16.8043 34.4464 19.3478 35.5 22 35.5ZM26.4141 23.6641L21.4141 28.6641C21.0469 29.0312 20.4531 29.0312 20.0898 28.6641L17.5898 26.1641C17.2227 25.7969 17.2227 25.2031 17.5898 24.8398C17.957 24.4766 18.5508 24.4727 18.9141 24.8398L20.75 26.6758L25.0859 22.3359C25.4531 21.9688 26.0469 21.9688 26.4102 22.3359C26.7734 22.7031 26.7773 23.2969 26.4102 23.6602L26.4141 23.6641Z" fill="white"/>
</g>
</g>
<defs>
<linearGradient id="paint0_linear_44_3201" x1="0" y1="26" x2="44" y2="26" gradientUnits="userSpaceOnUse">
<stop stop-color="#D946EF"/>
<stop offset="1" stop-color="#C026D3"/>
</linearGradient>
<clipPath id="clip0_44_3201">
<rect width="20" height="20" fill="white" transform="translate(12 15.5)"/>
</clipPath>
<clipPath id="clip1_44_3201">
<path d="M12 15.5H32V35.5H12V15.5Z" fill="white"/>
</clipPath>
</defs>
</svg>
