<svg width="44" height="52" viewBox="0 0 44 52" fill="none" xmlns="http://www.w3.org/2000/svg">
<path d="M36 0C40.4183 0 44 3.58172 44 8V44C44 48.4183 40.4183 52 36 52H8C3.58172 52 0 48.4183 0 44V8C0 3.58172 3.58172 0 8 0H36Z" fill="url(#paint0_linear_44_3199)"/>
<path d="M36 0C40.4183 0 44 3.58172 44 8V44C44 48.4183 40.4183 52 36 52H8C3.58172 52 0 48.4183 0 44V8C0 3.58172 3.58172 0 8 0H36Z" stroke="#E5E7EB"/>
<g clip-path="url(#clip0_44_3199)">
<g clip-path="url(#clip1_44_3199)">
<path d="M22 15.5C24.6522 15.5 27.1957 16.5536 29.0711 18.4289C30.9464 20.3043 32 22.8478 32 25.5C32 28.1522 30.9464 30.6957 29.0711 32.5711C27.1957 34.4464 24.6522 35.5 22 35.5C19.3478 35.5 16.8043 34.4464 14.9289 32.5711C13.0536 30.6957 12 28.1522 12 25.5C12 22.8478 13.0536 20.3043 14.9289 18.4289C16.8043 16.5536 19.3478 15.5 22 15.5ZM21.0625 20.1875V25.5C21.0625 25.8125 21.2188 26.1055 21.4805 26.2812L25.2305 28.7812C25.6602 29.0703 26.2422 28.9531 26.5312 28.5195C26.8203 28.0859 26.7031 27.5078 26.2695 27.2188L22.9375 25V20.1875C22.9375 19.668 22.5195 19.25 22 19.25C21.4805 19.25 21.0625 19.668 21.0625 20.1875Z" fill="white"/>
</g>
</g>
<defs>
<linearGradient id="paint0_linear_44_3199" x1="0" y1="26" x2="44" y2="26" gradientUnits="userSpaceOnUse">
<stop stop-color="#F97316"/>
<stop offset="1" stop-color="#EA580C"/>
</linearGradient>
<clipPath id="clip0_44_3199">
<rect width="20" height="20" fill="white" transform="translate(12 15.5)"/>
</clipPath>
<clipPath id="clip1_44_3199">
<path d="M12 15.5H32V35.5H12V15.5Z" fill="white"/>
</clipPath>
</defs>
</svg>
