<svg width="51" height="56" viewBox="0 0 51 56" fill="none" xmlns="http://www.w3.org/2000/svg">
<path d="M39 0C45.6274 0 51 5.37258 51 12V44C51 50.6274 45.6274 56 39 56H12C5.37258 56 0 50.6274 0 44V12C5.15406e-07 5.37258 5.37258 0 12 0H39Z" fill="#FEFCE8"/>
<path d="M39 0C45.6274 0 51 5.37258 51 12V44C51 50.6274 45.6274 56 39 56H12C5.37258 56 0 50.6274 0 44V12C5.15406e-07 5.37258 5.37258 0 12 0H39Z" stroke="#E5E7EB"/>
<path d="M39 42H12V13H39V42Z" stroke="#E5E7EB"/>
<g clip-path="url(#clip0_41_674)">
<path d="M26.8548 15.8438C26.6064 15.3281 26.0814 15 25.5048 15C24.9282 15 24.4079 15.3281 24.1548 15.8438L21.1407 22.0453L14.4095 23.0391C13.847 23.1234 13.3782 23.5172 13.2048 24.0562C13.0314 24.5953 13.172 25.1906 13.5751 25.5891L18.4595 30.4219L17.3064 37.2516C17.2126 37.8141 17.447 38.3859 17.911 38.7188C18.3751 39.0516 18.9892 39.0938 19.4954 38.8266L25.5095 35.6156L31.5235 38.8266C32.0298 39.0938 32.6439 39.0562 33.1079 38.7188C33.572 38.3813 33.8064 37.8141 33.7126 37.2516L32.5548 30.4219L37.4392 25.5891C37.8423 25.1906 37.9876 24.5953 37.8095 24.0562C37.6314 23.5172 37.1673 23.1234 36.6048 23.0391L29.8689 22.0453L26.8548 15.8438Z" fill="#CA8A04"/>
</g>
<defs>
<clipPath id="clip0_41_674">
<path d="M12 15H39V39H12V15Z" fill="white"/>
</clipPath>
</defs>
</svg>
