<svg width="48" height="56" viewBox="0 0 48 56" fill="none" xmlns="http://www.w3.org/2000/svg">
<path d="M36 0C42.6274 0 48 5.37258 48 12V44C48 50.6274 42.6274 56 36 56H12C5.37258 56 0 50.6274 0 44V12C5.15406e-07 5.37258 5.37258 0 12 0H36Z" fill="#EFF6FF"/>
<path d="M36 0C42.6274 0 48 5.37258 48 12V44C48 50.6274 42.6274 56 36 56H12C5.37258 56 0 50.6274 0 44V12C5.15406e-07 5.37258 5.37258 0 12 0H36Z" stroke="#E5E7EB"/>
<path d="M36 42H12V13H36V42Z" stroke="#E5E7EB"/>
<g clip-path="url(#clip0_41_668)">
<path d="M24 15C27.1826 15 30.2348 16.2643 32.4853 18.5147C34.7357 20.7652 36 23.8174 36 27C36 30.1826 34.7357 33.2348 32.4853 35.4853C30.2348 37.7357 27.1826 39 24 39C20.8174 39 17.7652 37.7357 15.5147 35.4853C13.2643 33.2348 12 30.1826 12 27C12 23.8174 13.2643 20.7652 15.5147 18.5147C17.7652 16.2643 20.8174 15 24 15ZM22.875 20.625V27C22.875 27.375 23.0625 27.7266 23.3766 27.9375L27.8766 30.9375C28.3922 31.2844 29.0906 31.1437 29.4375 30.6234C29.7844 30.1031 29.6437 29.4094 29.1234 29.0625L25.125 26.4V20.625C25.125 20.0016 24.6234 19.5 24 19.5C23.3766 19.5 22.875 20.0016 22.875 20.625Z" fill="#2563EB"/>
</g>
<defs>
<clipPath id="clip0_41_668">
<path d="M12 15H36V39H12V15Z" fill="white"/>
</clipPath>
</defs>
</svg>
