<svg width="49" height="52" viewBox="0 0 49 52" fill="none" xmlns="http://www.w3.org/2000/svg">
<path d="M41 0C45.4183 0 49 3.58172 49 8V44C49 48.4183 45.4183 52 41 52H8C3.58172 52 0 48.4183 0 44V8C0 3.58172 3.58172 0 8 0H41Z" fill="url(#paint0_linear_44_3197)"/>
<path d="M41 0C45.4183 0 49 3.58172 49 8V44C49 48.4183 45.4183 52 41 52H8C3.58172 52 0 48.4183 0 44V8C0 3.58172 3.58172 0 8 0H41Z" stroke="#E5E7EB"/>
<g clip-path="url(#clip0_44_3197)">
<g clip-path="url(#clip1_44_3197)">
<path d="M17.625 15.5C18.4538 15.5 19.2487 15.8292 19.8347 16.4153C20.4208 17.0013 20.75 17.7962 20.75 18.625C20.75 19.4538 20.4208 20.2487 19.8347 20.8347C19.2487 21.4208 18.4538 21.75 17.625 21.75C16.7962 21.75 16.0013 21.4208 15.4153 20.8347C14.8292 20.2487 14.5 19.4538 14.5 18.625C14.5 17.7962 14.8292 17.0013 15.4153 16.4153C16.0013 15.8292 16.7962 15.5 17.625 15.5ZM32 15.5C32.8288 15.5 33.6237 15.8292 34.2097 16.4153C34.7958 17.0013 35.125 17.7962 35.125 18.625C35.125 19.4538 34.7958 20.2487 34.2097 20.8347C33.6237 21.4208 32.8288 21.75 32 21.75C31.1712 21.75 30.3763 21.4208 29.7903 20.8347C29.2042 20.2487 28.875 19.4538 28.875 18.625C28.875 17.7962 29.2042 17.0013 29.7903 16.4153C30.3763 15.8292 31.1712 15.5 32 15.5ZM12 27.168C12 24.8672 13.8672 23 16.168 23H17.8359C18.457 23 19.0469 23.1367 19.5781 23.3789C19.5273 23.6602 19.5039 23.9531 19.5039 24.25C19.5039 25.7422 20.1602 27.082 21.1953 28C21.1875 28 21.1797 28 21.168 28H12.832C12.375 28 12 27.625 12 27.168ZM27.832 28C27.8242 28 27.8164 28 27.8047 28C28.8438 27.082 29.4961 25.7422 29.4961 24.25C29.4961 23.9531 29.4688 23.6641 29.4219 23.3789C29.9531 23.1328 30.543 23 31.1641 23H32.832C35.1328 23 37 24.8672 37 27.168C37 27.6289 36.625 28 36.168 28H27.832ZM20.75 24.25C20.75 23.2554 21.1451 22.3016 21.8483 21.5983C22.5516 20.8951 23.5054 20.5 24.5 20.5C25.4946 20.5 26.4484 20.8951 27.1517 21.5983C27.8549 22.3016 28.25 23.2554 28.25 24.25C28.25 25.2446 27.8549 26.1984 27.1517 26.9017C26.4484 27.6049 25.4946 28 24.5 28C23.5054 28 22.5516 27.6049 21.8483 26.9017C21.1451 26.1984 20.75 25.2446 20.75 24.25ZM17 34.457C17 31.582 19.332 29.25 22.207 29.25H26.793C29.668 29.25 32 31.582 32 34.457C32 35.0312 31.5352 35.5 30.957 35.5H18.043C17.4688 35.5 17 35.0352 17 34.457Z" fill="white"/>
</g>
</g>
<defs>
<linearGradient id="paint0_linear_44_3197" x1="0" y1="26" x2="49" y2="26" gradientUnits="userSpaceOnUse">
<stop stop-color="#22C55E"/>
<stop offset="1" stop-color="#16A34A"/>
</linearGradient>
<clipPath id="clip0_44_3197">
<rect width="25" height="20" fill="white" transform="translate(12 15.5)"/>
</clipPath>
<clipPath id="clip1_44_3197">
<path d="M12 15.5H37V35.5H12V15.5Z" fill="white"/>
</clipPath>
</defs>
</svg>
